<svg
  width="24px"
  height="24px"
  viewBox="0 0 256 256"
  xmlns="http://www.w3.org/2000/svg"
>
  <path
    fill="#ffffff"
    d="M209,223.9l-12.7-12.5c19.8-22.3,31.8-51.4,31.8-83.4c0-32-12.1-61.1-31.8-83.4L209,32.1c23,25.6,37,59.1,37,95.9S232,198.4,209,223.9z M174.3,189.7l-12.7-12.5c11-13.5,17.6-30.6,17.6-49.2c0-18.6-6.6-35.7-17.6-49.2l12.7-12.5C188.5,83,197,104.5,197,128C197,151.5,188.5,173,174.3,189.7z M121.3,198.1c-2.9,0-5.6-0.9-7.8-2.5l0,0L68,163.1H23.3c-7.4,0-13.3-5.9-13.3-13.1v-43.8c0-7.2,6-13.1,13.3-13.1v0h44.3l45.2-36.4l0,0c2.3-1.9,5.2-3,8.4-3c7.4,0,13.4,5.9,13.4,13.1v39.4v30.7v13.1v13.1V185C134.7,192.3,128.7,198.1,121.3,198.1z"
  />
</svg>
