<svg
  width="24px"
  height="24px"
  viewBox="0 0 256 256"
  xmlns="http://www.w3.org/2000/svg"
>
  <path
    fill="#ffffff"
    d="M122.3,40.9c-1.5,0.5-9.7,6.6-30.1,22.7l-28,22l-19.9,0.1l-20,0.1l-3.1,1.5c-4.4,2-7.4,5-9.5,9.4l-1.7,3.5v28.1v28l1.5,3.2c2.9,5.8,8.4,10,14.7,11c1.5,0.3,10.7,0.5,20.5,0.5h17.8l27.4,21.5c15.1,11.9,28.2,21.9,29,22.3c2.5,1.3,8.4,1.1,10.9-0.2c2.5-1.3,5.1-4.3,5.7-6.5c0.3-1.3,0.4-26,0.4-80.7l-0.1-78.9l-1-1.9c-0.5-1-1.5-2.3-2.1-2.8C131.7,40.8,126.2,39.6,122.3,40.9z"
  />
  <path
    fill="#ffffff"
    d="M171.4,88.1c-2.8,1-4.4,2.5-5.8,5.2c-1,2.1-1.2,2.9-1,4.8c0.1,1.2,0.6,2.8,0.9,3.5c0.3,0.7,6.3,6.9,13.3,13.9l12.7,12.7L179,140.9c-13.7,13.8-13.8,14-13.5,18.9c0.3,3.6,1.9,6,5,7.6c2.8,1.4,5.6,1.6,8.2,0.5c1.1-0.5,5.9-5,14-13c6.8-6.8,12.5-12.3,12.7-12.3c0.3,0,5.9,5.5,12.5,12.1c7.8,7.8,12.7,12.4,13.9,13c6.2,2.9,13.7-1.9,13.7-8.8c0-3.7-0.6-4.4-13.7-17.6l-12.7-12.7l12.6-12.5c6.9-6.9,12.9-13.3,13.4-14.2c1.2-2.3,1.2-6.3,0-8.7c-2.5-4.9-8.3-6.8-13.2-4.4c-0.7,0.4-7.1,6.3-14,13.2l-12.6,12.6l-13.1-13c-12-11.9-13.3-13.1-15.3-13.6C174.2,87.3,173.5,87.4,171.4,88.1z"
  />
</svg>
