<?xml version="1.0" encoding="UTF-8"?>
<!DOCTYPE svg PUBLIC "-//W3C//DTD SVG 1.1//EN" "http://www.w3.org/Graphics/SVG/1.1/DTD/svg11.dtd">
<svg xmlns="http://www.w3.org/2000/svg" version="1.1" width="304px" height="839px" style="shape-rendering:geometricPrecision; text-rendering:geometricPrecision; image-rendering:optimizeQuality; fill-rule:evenodd; clip-rule:evenodd" xmlns:xlink="http://www.w3.org/1999/xlink">
<g><path style="opacity:0.179" fill="#f9f7f5" d="M 283.5,95.5 C 283.5,90.1667 283.5,84.8333 283.5,79.5C 284.651,74.3497 284.817,69.0164 284,63.5C 283.617,62.944 283.117,62.6107 282.5,62.5C 281.139,60.4727 279.473,58.806 277.5,57.5C 273.625,52.8886 269.292,48.7219 264.5,45C 259.87,42.7745 255.704,39.9412 252,36.5C 248.944,35.1116 245.777,34.1116 242.5,33.5C 240.973,33.573 239.973,32.9063 239.5,31.5C 228.548,26.2491 216.881,22.7491 204.5,21C 186.397,18.4971 168.397,17.9971 150.5,19.5C 146.96,19.7526 143.627,20.4192 140.5,21.5C 138.167,21.5 135.833,21.5 133.5,21.5C 130.67,21.9628 128.003,22.6295 125.5,23.5C 122.017,24.0101 118.684,24.6768 115.5,25.5C 115.167,25.5 114.833,25.5 114.5,25.5C 110.066,25.9695 106.066,27.3028 102.5,29.5C 97.3241,31.2551 92.3241,33.2551 87.5,35.5C 84.7334,36.432 82.0667,37.5986 79.5,39C 78.6195,39.7083 77.9528,40.5416 77.5,41.5C 61.7972,48.6932 49.2972,59.6932 40,74.5C 38.2932,76.9088 37.4598,79.5755 37.5,82.5C 37.1677,311.57 37.5011,540.57 38.5,769.5C 38.6596,771.153 39.3263,772.486 40.5,773.5C 41.4706,775.483 42.4706,777.483 43.5,779.5C 54.8951,795.568 69.5618,807.568 87.5,815.5C 83.8183,815.665 80.1516,815.499 76.5,815C 75.6634,813.989 75.33,812.822 75.5,811.5C 71.7593,812.401 69.7593,811.068 69.5,807.5C 65.7593,808.401 63.7593,807.068 63.5,803.5C 61.8333,803.5 60.1667,803.5 58.5,803.5C 58.5,802.167 58.5,800.833 58.5,799.5C 55.0504,800.244 53.3838,798.91 53.5,795.5C 52.5,795.5 51.5,795.5 50.5,795.5C 50.5,794.167 50.5,792.833 50.5,791.5C 44.9706,789.61 41.9706,785.61 41.5,779.5C 40.5,779.5 39.5,779.5 38.5,779.5C 37.1886,775.532 35.8552,771.532 34.5,767.5C 33.3333,538.834 33.1667,310.167 34,81.5C 37.6469,72.1666 42.9802,63.8333 50,56.5C 65.7168,42.5968 83.5501,32.4301 103.5,26C 144.829,14.7973 186.163,14.1307 227.5,24C 235.485,26.9903 243.485,29.9903 251.5,33C 258.817,37.488 265.817,42.3213 272.5,47.5C 274.5,50.8333 277.167,53.5 280.5,55.5C 282.848,58.1991 284.682,61.1991 286,64.5C 286.029,70.8142 285.862,77.1476 285.5,83.5C 285.491,87.893 284.824,91.893 283.5,95.5 Z"/></g>
<g><path style="opacity:0.82" fill="#d8b58d" d="M 150.5,19.5 C 151.833,19.5 153.167,19.5 154.5,19.5C 150.081,20.9715 145.414,21.6382 140.5,21.5C 143.627,20.4192 146.96,19.7526 150.5,19.5 Z"/></g>
<g><path style="opacity:0.514" fill="#eddcc3" d="M 150.5,19.5 C 168.397,17.9971 186.397,18.4971 204.5,21C 216.881,22.7491 228.548,26.2491 239.5,31.5C 212.007,22.3821 183.674,18.3821 154.5,19.5C 153.167,19.5 151.833,19.5 150.5,19.5 Z"/></g>
<g><path style="opacity:0.788" fill="#dec19f" d="M 133.5,21.5 C 133.389,22.1174 133.056,22.6174 132.5,23C 130.19,23.4966 127.857,23.6633 125.5,23.5C 128.003,22.6295 130.67,21.9628 133.5,21.5 Z"/></g>
<g><path style="opacity:0.831" fill="#debe9c" d="M 125.5,23.5 C 125.389,24.1174 125.056,24.6174 124.5,25C 121.518,25.498 118.518,25.6646 115.5,25.5C 118.684,24.6768 122.017,24.0101 125.5,23.5 Z"/></g>
<g><path style="opacity:0.745" fill="#debf9e" d="M 114.5,25.5 C 114.389,26.1174 114.056,26.6174 113.5,27C 109.879,28.1382 106.212,28.9716 102.5,29.5C 106.066,27.3028 110.066,25.9695 114.5,25.5 Z"/></g>
<g><path style="opacity:0.706" fill="#dcb893" d="M 102.5,29.5 C 101.263,31.0968 99.596,32.2635 97.5,33C 94.2206,34.1486 90.8873,34.9819 87.5,35.5C 92.3241,33.2551 97.3241,31.2551 102.5,29.5 Z"/></g>
<g><path style="opacity:0.871" fill="#d5ac81" d="M 87.5,35.5 C 84.8421,38.4105 81.5087,40.4105 77.5,41.5C 77.9528,40.5416 78.6195,39.7083 79.5,39C 82.0667,37.5986 84.7334,36.432 87.5,35.5 Z"/></g>
<g><path style="opacity:0.941" fill="#dcb871" d="M 242.5,33.5 C 245.777,34.1116 248.944,35.1116 252,36.5C 255.704,39.9412 259.87,42.7745 264.5,45C 269.292,48.7219 273.625,52.8886 277.5,57.5C 276.833,57.5 276.167,57.5 275.5,57.5C 265.595,47.9188 254.595,39.9188 242.5,33.5 Z"/></g>
<g><path style="opacity:0.996" fill="#bc7d39" d="M 154.5,19.5 C 183.674,18.3821 212.007,22.3821 239.5,31.5C 239.973,32.9063 240.973,33.573 242.5,33.5C 254.595,39.9188 265.595,47.9188 275.5,57.5C 277.954,60.0749 279.62,63.0749 280.5,66.5C 279.21,74.9479 278.21,83.2812 277.5,91.5C 277.729,84.8922 277.063,84.3922 275.5,90C 268.737,99.716 260.737,108.216 251.5,115.5C 243.104,121.36 234.437,126.694 225.5,131.5C 223.278,132.688 220.945,133.688 218.5,134.5C 208.958,138.03 199.291,141.03 189.5,143.5C 181.586,143.625 173.919,144.625 166.5,146.5C 165.5,146.5 164.5,146.5 163.5,146.5C 141.604,147.96 120.271,145.293 99.5,138.5C 94.9868,137.16 90.6535,135.327 86.5,133C 84.9632,131.89 84.2965,130.39 84.5,128.5C 84.5,126.167 84.5,123.833 84.5,121.5C 117.833,138.45 152.833,142.283 189.5,133C 194.47,132.053 199.137,130.553 203.5,128.5C 215.901,124.966 227.234,119.3 237.5,111.5C 238.473,111.013 239.473,110.513 240.5,110C 249.915,101.591 257.415,91.7572 263,80.5C 263.977,78.26 264.477,75.9267 264.5,73.5C 267.303,70.7964 268.137,67.4631 267,63.5C 251.622,47.7263 233.122,37.5597 211.5,33C 170.657,24.4865 130.99,28.1532 92.5,44C 80.7277,50.3295 70.2277,58.4962 61,68.5C 58.4167,72.0869 56.25,75.9202 54.5,80C 55.0769,81.9001 55.7435,83.7334 56.5,85.5C 56.5,85.8333 56.5,86.1667 56.5,86.5C 58.2623,92.6912 61.0956,98.3579 65,103.5C 70.0646,109.4 75.5646,114.733 81.5,119.5C 78.1667,121.167 74.8333,122.833 71.5,124.5C 62.8829,118.55 55.2163,111.55 48.5,103.5C 44.62,97.0734 41.2867,90.4067 38.5,83.5C 38.5,82.8333 38.1667,82.5 37.5,82.5C 37.4598,79.5755 38.2932,76.9088 40,74.5C 49.2972,59.6932 61.7972,48.6932 77.5,41.5C 81.5087,40.4105 84.8421,38.4105 87.5,35.5C 90.8873,34.9819 94.2206,34.1486 97.5,33C 99.596,32.2635 101.263,31.0968 102.5,29.5C 106.212,28.9716 109.879,28.1382 113.5,27C 114.056,26.6174 114.389,26.1174 114.5,25.5C 114.833,25.5 115.167,25.5 115.5,25.5C 118.518,25.6646 121.518,25.498 124.5,25C 125.056,24.6174 125.389,24.1174 125.5,23.5C 127.857,23.6633 130.19,23.4966 132.5,23C 133.056,22.6174 133.389,22.1174 133.5,21.5C 135.833,21.5 138.167,21.5 140.5,21.5C 145.414,21.6382 150.081,20.9715 154.5,19.5 Z"/></g>
<g><path style="opacity:0.996" fill="#d6ae5a" d="M 189.5,55.5 C 192.096,56.2653 194.763,56.5987 197.5,56.5C 213.574,62.4873 228.574,70.6539 242.5,81C 243.611,85.7786 243.611,90.6119 242.5,95.5C 241.488,96.8717 240.488,98.205 239.5,99.5C 208.327,123.041 173.327,131.375 134.5,124.5C 134.5,123.167 134.5,121.833 134.5,120.5C 124.2,118.361 113.867,116.194 103.5,114C 102.186,111.395 102.186,108.895 103.5,106.5C 140.548,121.236 177.548,121.069 214.5,106C 223.144,101.695 230.644,95.8618 237,88.5C 237.711,86.6332 237.211,85.1332 235.5,84C 208.47,67.6002 179.136,61.2669 147.5,65C 138.594,65.228 129.927,66.728 121.5,69.5C 120.25,69.4226 119.417,68.756 119,67.5C 117.759,65.4521 117.592,63.4521 118.5,61.5C 141.666,54.5436 165.332,52.5436 189.5,55.5 Z"/></g>
<g><path style="opacity:0.996" fill="#c08d3d" d="M 264.5,73.5 C 264.477,75.9267 263.977,78.26 263,80.5C 257.415,91.7572 249.915,101.591 240.5,110C 239.473,110.513 238.473,111.013 237.5,111.5C 237.954,109.259 237.954,107.259 237.5,105.5C 238.551,104.778 239.218,103.778 239.5,102.5C 240.552,102.649 241.552,102.483 242.5,102C 247.639,96.5262 252.805,91.0262 258,85.5C 258.418,83.212 257.751,81.212 256,79.5C 237.01,62.2634 214.51,52.93 188.5,51.5C 176.674,50.9492 164.674,50.9492 152.5,51.5C 156.647,50.6753 160.981,50.1753 165.5,50C 153.03,47.1083 140.363,45.9416 127.5,46.5C 161.12,39.9182 194.453,41.7516 227.5,52C 241.107,57.1315 253.441,64.2982 264.5,73.5 Z"/></g>
<g><path style="opacity:0.996" fill="#93592c" d="M 264.5,73.5 C 253.441,64.2982 241.107,57.1315 227.5,52C 194.453,41.7516 161.12,39.9182 127.5,46.5C 122.713,46.9905 118.047,47.9905 113.5,49.5C 90.0464,54.712 71.0464,66.712 56.5,85.5C 55.7435,83.7334 55.0769,81.9001 54.5,80C 56.25,75.9202 58.4167,72.0869 61,68.5C 70.2277,58.4962 80.7277,50.3295 92.5,44C 130.99,28.1532 170.657,24.4865 211.5,33C 233.122,37.5597 251.622,47.7263 267,63.5C 268.137,67.4631 267.303,70.7964 264.5,73.5 Z"/></g>
<g><path style="opacity:0.996" fill="#d6ad59" d="M 127.5,46.5 C 140.363,45.9416 153.03,47.1083 165.5,50C 160.981,50.1753 156.647,50.6753 152.5,51.5C 139.791,51.9085 127.458,54.2418 115.5,58.5C 113.529,55.6352 112.863,52.6352 113.5,49.5C 118.047,47.9905 122.713,46.9905 127.5,46.5 Z"/></g>
<g><path style="opacity:0.996" fill="#bb7323" d="M 188.5,51.5 C 214.51,52.93 237.01,62.2634 256,79.5C 257.751,81.212 258.418,83.212 258,85.5C 252.805,91.0262 247.639,96.5262 242.5,102C 241.552,102.483 240.552,102.649 239.5,102.5C 239.5,101.5 239.5,100.5 239.5,99.5C 240.488,98.205 241.488,96.8717 242.5,95.5C 245.746,93.6867 248.579,91.3534 251,88.5C 251.85,86.99 252.683,85.49 253.5,84C 250.337,79.6711 246.671,75.8378 242.5,72.5C 228.847,63.6879 213.847,58.3546 197.5,56.5C 194.763,56.5987 192.096,56.2653 189.5,55.5C 186.184,54.653 182.85,53.4863 179.5,52C 182.482,51.502 185.482,51.3354 188.5,51.5 Z"/></g>
<g><path style="opacity:0.571" fill="#f1e3c5" d="M 282.5,62.5 C 283.117,62.6107 283.617,62.944 284,63.5C 284.817,69.0164 284.651,74.3497 283.5,79.5C 283.74,73.773 283.407,68.1064 282.5,62.5 Z"/></g>
<g><path style="opacity:0.996" fill="#c18e3d" d="M 197.5,56.5 C 213.847,58.3546 228.847,63.6879 242.5,72.5C 246.671,75.8378 250.337,79.6711 253.5,84C 252.683,85.49 251.85,86.99 251,88.5C 248.579,91.3534 245.746,93.6867 242.5,95.5C 243.611,90.6119 243.611,85.7786 242.5,81C 228.574,70.6539 213.574,62.4873 197.5,56.5 Z"/></g>
<g><path style="opacity:0.996" fill="#c8a355" d="M 113.5,49.5 C 112.863,52.6352 113.529,55.6352 115.5,58.5C 98.7733,64.8429 83.44,73.8429 69.5,85.5C 68.2887,86.8745 67.2887,88.3745 66.5,90C 67.9978,93.3273 69.9978,96.3273 72.5,99C 89.8681,115.515 110.535,125.349 134.5,128.5C 134.5,129.833 134.5,131.167 134.5,132.5C 132.5,132.5 130.5,132.5 128.5,132.5C 104.92,129.624 84.7537,119.958 68,103.5C 63.5207,98.2024 59.6874,92.5357 56.5,86.5C 56.5,86.1667 56.5,85.8333 56.5,85.5C 71.0464,66.712 90.0464,54.712 113.5,49.5 Z"/></g>
<g><path style="opacity:0.996" fill="#c8a355" d="M 118.5,61.5 C 117.592,63.4521 117.759,65.4521 119,67.5C 119.417,68.756 120.25,69.4226 121.5,69.5C 114.037,71.3841 107.37,74.8841 101.5,80C 95.8805,82.5949 91.0472,86.4283 87,91.5C 87.0878,94.6422 88.5878,97.1422 91.5,99C 95.4289,101.788 99.4289,104.288 103.5,106.5C 102.186,108.895 102.186,111.395 103.5,114C 113.867,116.194 124.2,118.361 134.5,120.5C 134.5,121.833 134.5,123.167 134.5,124.5C 120.886,122.014 107.886,117.848 95.5,112C 85.7392,106.4 77.4058,99.2328 70.5,90.5C 84.0406,76.7311 100.041,67.0644 118.5,61.5 Z"/></g>
<g><path style="opacity:0.996" fill="#bd712d" d="M 277.5,91.5 C 274.928,142.176 272.261,192.843 269.5,243.5C 265.833,243.5 262.167,243.5 258.5,243.5C 257.907,254.172 257.24,264.838 256.5,275.5C 249.008,274.127 241.675,272.127 234.5,269.5C 233.334,250.842 233.167,232.176 234,213.5C 238.892,208.973 244.059,204.807 249.5,201C 251.455,198.832 252.121,196.498 251.5,194C 253.717,167.587 254.883,141.087 255,114.5C 253.989,115.337 252.822,115.67 251.5,115.5C 260.737,108.216 268.737,99.716 275.5,90C 277.063,84.3922 277.729,84.8922 277.5,91.5 Z"/></g>
<g><path style="opacity:0.996" fill="#7b401b" d="M 38.5,83.5 C 41.2867,90.4067 44.62,97.0734 48.5,103.5C 47.1054,101.946 46.4387,102.279 46.5,104.5C 46.4296,106.666 47.0962,106.999 48.5,105.5C 49.3333,170.164 49.8333,234.831 50,299.5C 50.5,300 51,300.5 51.5,301C 50.3078,302.945 50.3078,304.945 51.5,307C 51.0493,310.338 50.0493,310.838 48.5,308.5C 49.8303,305.151 49.3303,304.818 47,307.5C 46.1841,306.177 45.0174,305.511 43.5,305.5C 42.4188,303.866 41.0855,302.533 39.5,301.5C 39.8208,228.811 39.4874,156.144 38.5,83.5 Z"/></g>
<g><path style="opacity:0.867" fill="#e2c88d" d="M 282.5,91.5 C 282.355,100.688 281.689,109.688 280.5,118.5C 280.303,109.288 280.97,100.288 282.5,91.5 Z"/></g>
<g><path style="opacity:0.074" fill="#fbf6ec" d="M 283.5,79.5 C 283.5,84.8333 283.5,90.1667 283.5,95.5C 283.729,125.273 282.063,154.607 278.5,183.5C 279.078,173.176 279.412,162.843 279.5,152.5C 279.445,141.152 279.778,129.819 280.5,118.5C 281.689,109.688 282.355,100.688 282.5,91.5C 282.183,87.2984 282.517,83.2984 283.5,79.5 Z"/></g>
<g><path style="opacity:0.996" fill="#80421d" d="M 48.5,103.5 C 55.2163,111.55 62.8829,118.55 71.5,124.5C 71.3509,139.373 72.5176,154.04 75,168.5C 77.6599,157.335 80.4932,146.335 83.5,135.5C 84.0819,136.931 84.9152,138.264 86,139.5C 86.6667,178.167 86.6667,216.833 86,255.5C 85.0975,256.701 83.9308,257.535 82.5,258C 83,258.5 83.5,259 84,259.5C 84.6667,288.833 84.6667,318.167 84,347.5C 79.4473,351.597 75.114,355.93 71,360.5C 70.5172,361.448 70.3505,362.448 70.5,363.5C 69.3398,376.327 69.1731,389.327 70,402.5C 74.7367,403.469 79.57,403.803 84.5,403.5C 84.5,422.167 84.5,440.833 84.5,459.5C 76.1763,460.291 67.8429,460.458 59.5,460C 57.9391,459.682 56.7724,458.849 56,457.5C 53.7874,436.632 51.2874,415.799 48.5,395C 48.8333,393.833 49.1667,392.667 49.5,391.5C 51.8111,390.786 53.9777,389.786 56,388.5C 56.6667,365.5 56.6667,342.5 56,319.5C 51.9743,314.645 47.8076,309.978 43.5,305.5C 45.0174,305.511 46.1841,306.177 47,307.5C 49.3303,304.818 49.8303,305.151 48.5,308.5C 50.0493,310.838 51.0493,310.338 51.5,307C 50.3078,304.945 50.3078,302.945 51.5,301C 51,300.5 50.5,300 50,299.5C 49.8333,234.831 49.3333,170.164 48.5,105.5C 47.0962,106.999 46.4296,106.666 46.5,104.5C 46.4387,102.279 47.1054,101.946 48.5,103.5 Z"/></g>
<g><path style="opacity:0.996" fill="#bc8c33" d="M 103.5,106.5 C 99.4289,104.288 95.4289,101.788 91.5,99C 88.5878,97.1422 87.0878,94.6422 87,91.5C 91.0472,86.4283 95.8805,82.5949 101.5,80C 107.37,74.8841 114.037,71.3841 121.5,69.5C 129.927,66.728 138.594,65.228 147.5,65C 179.136,61.2669 208.47,67.6002 235.5,84C 237.211,85.1332 237.711,86.6332 237,88.5C 230.644,95.8618 223.144,101.695 214.5,106C 177.548,121.069 140.548,121.236 103.5,106.5 Z"/></g>
<g><path style="opacity:0.996" fill="#c9a456" d="M 126.5,98.5 C 137.955,101.565 149.621,103.232 161.5,103.5C 161.756,105.792 161.423,107.959 160.5,110C 149.839,110.5 139.172,110.667 128.5,110.5C 124.466,110.483 120.799,109.483 117.5,107.5C 120.313,107.548 122.979,108.215 125.5,109.5C 126.489,105.893 126.823,102.226 126.5,98.5 Z"/></g>
<g><path style="opacity:0.996" fill="#c8a355" d="M 122.5,73.5 C 121.952,76.0252 120.952,78.3585 119.5,80.5C 113.191,84.9746 107.025,89.6413 101,94.5C 100.322,96.5976 100.489,98.5976 101.5,100.5C 98.1393,99.316 95.1393,97.4827 92.5,95C 91.4829,93.9505 91.3162,92.7839 92,91.5C 100.765,83.0375 110.932,77.0375 122.5,73.5 Z"/></g>
<g><path style="opacity:0.996" fill="#d7af5a" d="M 128.5,110.5 C 139.172,110.667 149.839,110.5 160.5,110C 161.423,107.959 161.756,105.792 161.5,103.5C 177.573,102.315 192.906,98.3152 207.5,91.5C 207.719,90.325 207.386,89.325 206.5,88.5C 182.766,76.9299 158.099,74.4299 132.5,81C 125.82,83.0899 119.987,86.5899 115,91.5C 114.383,92.4491 114.549,93.2825 115.5,94C 119.307,95.4284 122.974,96.9284 126.5,98.5C 126.823,102.226 126.489,105.893 125.5,109.5C 122.979,108.215 120.313,107.548 117.5,107.5C 111.61,106.216 106.276,103.883 101.5,100.5C 100.489,98.5976 100.322,96.5976 101,94.5C 107.025,89.6413 113.191,84.9746 119.5,80.5C 120.952,78.3585 121.952,76.0252 122.5,73.5C 129.622,71.1755 136.955,69.6755 144.5,69C 168.8,66.4965 192.467,69.1631 215.5,77C 220.167,79.3333 224.833,81.6667 229.5,84C 230.687,85.0195 231.687,86.1861 232.5,87.5C 225.604,95.2902 217.271,101.124 207.5,105C 190.816,111.565 173.483,114.398 155.5,113.5C 146.193,113.939 137.193,112.939 128.5,110.5 Z"/></g>
<g><path style="opacity:0.996" fill="#bb8c32" d="M 161.5,103.5 C 149.621,103.232 137.955,101.565 126.5,98.5C 122.974,96.9284 119.307,95.4284 115.5,94C 114.549,93.2825 114.383,92.4491 115,91.5C 119.987,86.5899 125.82,83.0899 132.5,81C 158.099,74.4299 182.766,76.9299 206.5,88.5C 207.386,89.325 207.719,90.325 207.5,91.5C 192.906,98.3152 177.573,102.315 161.5,103.5 Z"/></g>
<g><path style="opacity:0.996" fill="#d5ad5a" d="M 142.5,81.5 C 160.516,80.2286 178.183,82.0619 195.5,87C 197.332,87.7485 198.999,88.7485 200.5,90C 182.133,99.0832 162.8,101.75 142.5,98C 134.644,97.3722 127.311,95.2055 120.5,91.5C 123.166,89.1647 126.166,87.3314 129.5,86C 133.991,84.6368 138.324,83.1368 142.5,81.5 Z"/></g>
<g><path style="opacity:0.996" fill="#bb8c33" d="M 188.5,51.5 C 185.482,51.3354 182.482,51.502 179.5,52C 182.85,53.4863 186.184,54.653 189.5,55.5C 165.332,52.5436 141.666,54.5436 118.5,61.5C 100.041,67.0644 84.0406,76.7311 70.5,90.5C 77.4058,99.2328 85.7392,106.4 95.5,112C 107.886,117.848 120.886,122.014 134.5,124.5C 173.327,131.375 208.327,123.041 239.5,99.5C 239.5,100.5 239.5,101.5 239.5,102.5C 239.218,103.778 238.551,104.778 237.5,105.5C 206.442,126.904 172.108,134.571 134.5,128.5C 110.535,125.349 89.8681,115.515 72.5,99C 69.9978,96.3273 67.9978,93.3273 66.5,90C 67.2887,88.3745 68.2887,86.8745 69.5,85.5C 83.44,73.8429 98.7733,64.8429 115.5,58.5C 127.458,54.2418 139.791,51.9085 152.5,51.5C 164.674,50.9492 176.674,50.9492 188.5,51.5 Z"/></g>
<g><path style="opacity:0.996" fill="#703e1d" d="M 81.5,119.5 C 83.0269,119.427 84.0269,120.094 84.5,121.5C 84.5,123.833 84.5,126.167 84.5,128.5C 83.5318,130.607 83.1984,132.941 83.5,135.5C 80.4932,146.335 77.6599,157.335 75,168.5C 72.5176,154.04 71.3509,139.373 71.5,124.5C 74.8333,122.833 78.1667,121.167 81.5,119.5 Z"/></g>
<g><path style="opacity:1" fill="#653616" d="M 37.5,82.5 C 38.1667,82.5 38.5,82.8333 38.5,83.5C 39.4874,156.144 39.8208,228.811 39.5,301.5C 39.5,367.5 39.5,433.5 39.5,499.5C 39.5,526.167 39.5,552.833 39.5,579.5C 39.8324,643.002 39.4991,706.336 38.5,769.5C 37.5011,540.57 37.1677,311.57 37.5,82.5 Z"/></g>
<g><path style="opacity:0.996" fill="#e2b454" d="M 56.5,86.5 C 59.6874,92.5357 63.5207,98.2024 68,103.5C 84.7537,119.958 104.92,129.624 128.5,132.5C 129.263,133.268 130.263,133.768 131.5,134C 139.5,134.5 147.5,135 155.5,135.5C 171.707,134.458 187.707,132.124 203.5,128.5C 199.137,130.553 194.47,132.053 189.5,133C 152.833,142.283 117.833,138.45 84.5,121.5C 84.0269,120.094 83.0269,119.427 81.5,119.5C 75.5646,114.733 70.0646,109.4 65,103.5C 61.0956,98.3579 58.2623,92.6912 56.5,86.5 Z"/></g>
<g><path style="opacity:0.996" fill="#d7af5a" d="M 237.5,105.5 C 237.954,107.259 237.954,109.259 237.5,111.5C 227.234,119.3 215.901,124.966 203.5,128.5C 187.707,132.124 171.707,134.458 155.5,135.5C 147.5,135 139.5,134.5 131.5,134C 130.263,133.768 129.263,133.268 128.5,132.5C 130.5,132.5 132.5,132.5 134.5,132.5C 134.5,131.167 134.5,129.833 134.5,128.5C 172.108,134.571 206.442,126.904 237.5,105.5 Z"/></g>
<g><path style="opacity:0.996" fill="#ad652b" d="M 225.5,131.5 C 227.167,131.5 228.833,131.5 230.5,131.5C 230.5,158.167 230.5,184.833 230.5,211.5C 229.448,211.351 228.448,211.517 227.5,212C 228.249,213.734 228.749,215.567 229,217.5C 229.181,234.544 229.681,251.544 230.5,268.5C 230.167,268.833 229.833,269.167 229.5,269.5C 228.501,252.847 228.167,236.18 228.5,219.5C 227.5,219.5 226.5,219.5 225.5,219.5C 226.042,235.729 226.709,251.895 227.5,268C 226.218,270.79 227.052,272.957 230,274.5C 230.756,399.836 230.59,525.169 229.5,650.5C 230.5,650.5 231.5,650.5 232.5,650.5C 232.25,655.58 232.75,660.58 234,665.5C 234.333,663.5 234.667,661.5 235,659.5C 235.407,665.243 234.907,670.91 233.5,676.5C 234.533,683.937 234.533,691.27 233.5,698.5C 234.769,702.649 235.435,706.982 235.5,711.5C 235.277,718.177 234.944,724.844 234.5,731.5C 230.871,705.095 228.538,678.428 227.5,651.5C 225.97,584.845 224.47,518.179 223,451.5C 222.008,345.76 220.508,240.093 218.5,134.5C 220.945,133.688 223.278,132.688 225.5,131.5 Z"/></g>
<g><path style="opacity:0.996" fill="#a45e2a" d="M 218.5,134.5 C 220.508,240.093 222.008,345.76 223,451.5C 224.47,518.179 225.97,584.845 227.5,651.5C 225.017,647.533 221.35,645.199 216.5,644.5C 214.344,642.159 211.844,640.159 209,638.5C 208.172,575.305 208.339,512.138 209.5,449C 209.387,447.72 208.72,446.887 207.5,446.5C 205.604,447.275 203.937,448.275 202.5,449.5C 201.25,449.423 200.417,448.756 200,447.5C 199.521,399.074 199.354,350.74 199.5,302.5C 200.889,300.132 202.222,297.799 203.5,295.5C 204.031,293.456 205.198,291.789 207,290.5C 207.167,289.333 207.333,288.167 207.5,287C 205.316,267.226 203.983,247.392 203.5,227.5C 204.266,219.509 204.433,211.509 204,203.5C 203.667,206.167 203.333,208.833 203,211.5C 203.093,208.044 202.093,205.044 200,202.5C 199.667,184.167 199.333,165.833 199,147.5C 197.355,147.307 195.521,147.14 193.5,147C 194.5,146 195.5,145 196.5,144C 194.19,143.503 191.857,143.337 189.5,143.5C 199.291,141.03 208.958,138.03 218.5,134.5 Z"/></g>
<g><path style="opacity:0.996" fill="#85451f" d="M 84.5,128.5 C 84.2965,130.39 84.9632,131.89 86.5,133C 90.6535,135.327 94.9868,137.16 99.5,138.5C 100.659,174.429 100.826,210.429 100,246.5C 99.3021,247.691 98.4687,248.691 97.5,249.5C 94.6655,250.069 92.9988,251.736 92.5,254.5C 90.3393,254.826 88.5059,255.826 87,257.5C 86.6667,287.833 86.3333,318.167 86,348.5C 80.5868,353.416 75.4201,358.416 70.5,363.5C 70.3505,362.448 70.5172,361.448 71,360.5C 75.114,355.93 79.4473,351.597 84,347.5C 84.6667,318.167 84.6667,288.833 84,259.5C 83.5,259 83,258.5 82.5,258C 83.9308,257.535 85.0975,256.701 86,255.5C 86.6667,216.833 86.6667,178.167 86,139.5C 84.9152,138.264 84.0819,136.931 83.5,135.5C 83.1984,132.941 83.5318,130.607 84.5,128.5 Z"/></g>
<g><path style="opacity:0.996" fill="#9f5527" d="M 99.5,138.5 C 120.271,145.293 141.604,147.96 163.5,146.5C 163.5,146.833 163.5,147.167 163.5,147.5C 160.813,147.336 158.146,147.503 155.5,148C 156.483,156.415 156.817,164.915 156.5,173.5C 149.833,173.5 143.167,173.5 136.5,173.5C 134.295,208.82 132.295,244.153 130.5,279.5C 137.477,280.364 144.477,281.031 151.5,281.5C 151.5,329.5 151.5,377.5 151.5,425.5C 154.167,425.833 156.833,426.167 159.5,426.5C 160.833,427.167 162.167,427.833 163.5,428.5C 160.819,428.462 158.319,429.129 156,430.5C 155.5,430.167 155,429.833 154.5,429.5C 155.729,428.719 157.062,428.219 158.5,428C 155.833,427.333 153.167,426.667 150.5,426C 148.083,424.327 148.083,422.494 150.5,420.5C 150.192,419.692 149.692,419.025 149,418.5C 148.51,372.892 148.343,327.559 148.5,282.5C 148.167,306.667 147.833,330.833 147.5,355C 148.395,413.499 149.228,471.999 150,530.5C 150.75,531.126 151.584,531.626 152.5,532C 150.685,532.757 149.019,533.59 147.5,534.5C 145.572,536.294 143.238,537.294 140.5,537.5C 142.366,572.814 144.032,608.148 145.5,643.5C 145.5,646.167 145.5,648.833 145.5,651.5C 147.167,651.5 148.833,651.5 150.5,651.5C 149.185,694.715 149.185,737.882 150.5,781C 149.672,781.915 148.672,782.581 147.5,783C 148.571,783.852 149.571,784.685 150.5,785.5C 145.925,783.308 141.258,781.308 136.5,779.5C 135.136,730.49 133.469,681.49 131.5,632.5C 125.87,631.708 120.203,631.375 114.5,631.5C 114.824,624.646 114.491,617.979 113.5,611.5C 113.5,610.167 113.5,608.833 113.5,607.5C 114.5,607.5 115.5,607.5 116.5,607.5C 120.802,578.315 126.302,549.315 133,520.5C 133.499,516.179 133.666,511.846 133.5,507.5C 126.885,507.522 120.385,506.855 114,505.5C 113.5,493.505 113.333,481.505 113.5,469.5C 113.631,468.624 113.298,467.957 112.5,467.5C 110.591,468.348 108.591,468.682 106.5,468.5C 105.248,444.179 104.248,419.845 103.5,395.5C 106.14,396.82 108.807,398.153 111.5,399.5C 112.612,406.6 113.779,413.6 115,420.5C 115.282,429.531 115.949,438.531 117,447.5C 118.062,448.097 119.228,448.43 120.5,448.5C 126.813,447.793 133.147,447.293 139.5,447C 140.126,446.25 140.626,445.416 141,444.5C 139.432,423.502 137.098,402.502 134,381.5C 130.659,377.908 126.826,374.908 122.5,372.5C 122.167,370.833 121.833,369.167 121.5,367.5C 123.222,345.832 124.889,324.165 126.5,302.5C 118.58,302.185 110.747,302.518 103,303.5C 102.327,313.001 101.494,322.335 100.5,331.5C 99.6664,315.533 98.4998,299.533 97,283.5C 96.1901,272.091 96.3568,260.757 97.5,249.5C 98.4687,248.691 99.3021,247.691 100,246.5C 100.826,210.429 100.659,174.429 99.5,138.5 Z"/></g>
<g><path style="opacity:0.996" fill="#a25b28" d="M 189.5,143.5 C 191.857,143.337 194.19,143.503 196.5,144C 195.5,145 194.5,146 193.5,147C 195.521,147.14 197.355,147.307 199,147.5C 199.333,165.833 199.667,184.167 200,202.5C 202.093,205.044 203.093,208.044 203,211.5C 203.333,208.833 203.667,206.167 204,203.5C 204.433,211.509 204.266,219.509 203.5,227.5C 202.077,219.982 200.911,212.315 200,204.5C 194.985,204.348 189.818,204.348 184.5,204.5C 187.26,226.465 188.593,248.465 188.5,270.5C 182.593,269.794 176.76,268.794 171,267.5C 171.998,253.832 173.331,240.165 175,226.5C 178.568,206.302 181.568,185.969 184,165.5C 184.809,159.251 184.642,153.084 183.5,147C 184.167,146.667 184.833,146.333 185.5,146C 179.167,145.766 172.834,145.932 166.5,146.5C 173.919,144.625 181.586,143.625 189.5,143.5 Z"/></g>
<g><path style="opacity:0.996" fill="#994e24" d="M 163.5,147.5 C 163.607,149.379 163.107,149.712 162,148.5C 158.844,149.659 158.677,151.159 161.5,153C 160.299,156.182 159.632,159.515 159.5,163C 159.529,249.416 159.529,335.916 159.5,422.5C 160.873,422.343 162.207,422.51 163.5,423C 161.973,424.032 160.64,425.199 159.5,426.5C 156.833,426.167 154.167,425.833 151.5,425.5C 151.5,377.5 151.5,329.5 151.5,281.5C 144.477,281.031 137.477,280.364 130.5,279.5C 132.295,244.153 134.295,208.82 136.5,173.5C 143.167,173.5 149.833,173.5 156.5,173.5C 156.817,164.915 156.483,156.415 155.5,148C 158.146,147.503 160.813,147.336 163.5,147.5 Z"/></g>
<g><path style="opacity:0.997" fill="#d6ad5b" d="M 275.5,57.5 C 276.167,57.5 276.833,57.5 277.5,57.5C 279.473,58.806 281.139,60.4727 282.5,62.5C 283.407,68.1064 283.74,73.773 283.5,79.5C 282.517,83.2984 282.183,87.2984 282.5,91.5C 280.97,100.288 280.303,109.288 280.5,118.5C 279.778,129.819 279.445,141.152 279.5,152.5C 277.991,162.628 277.325,172.962 277.5,183.5C 277.086,195.668 276.419,207.668 275.5,219.5C 274.803,234.372 274.136,249.372 273.5,264.5C 272.084,282.982 271.417,301.649 271.5,320.5C 271.5,326.167 271.5,331.833 271.5,337.5C 269.827,350.628 269.16,363.962 269.5,377.5C 268.793,380.786 268.46,384.119 268.5,387.5C 268.112,406.078 266.945,424.745 265,443.5C 264.5,499.166 264.333,554.832 264.5,610.5C 263.506,600.347 263.172,590.014 263.5,579.5C 263.266,515.495 263.6,451.495 264.5,387.5C 266.416,339.666 268.082,291.666 269.5,243.5C 272.261,192.843 274.928,142.176 277.5,91.5C 278.21,83.2812 279.21,74.9479 280.5,66.5C 279.62,63.0749 277.954,60.0749 275.5,57.5 Z"/></g>
<g><path style="opacity:0.5" fill="#eedebc" d="M 279.5,152.5 C 279.412,162.843 279.078,173.176 278.5,183.5C 278.167,183.5 277.833,183.5 277.5,183.5C 277.325,172.962 277.991,162.628 279.5,152.5 Z"/></g>
<g><path style="opacity:0.099" fill="#fcf9f3" d="M 277.5,183.5 C 277.833,183.5 278.167,183.5 278.5,183.5C 278.417,200.837 278.083,218.171 277.5,235.5C 277.497,242.535 276.83,249.202 275.5,255.5C 275.5,243.5 275.5,231.5 275.5,219.5C 276.419,207.668 277.086,195.668 277.5,183.5 Z"/></g>
<g><path style="opacity:0.595" fill="#f0e1c1" d="M 275.5,219.5 C 275.5,231.5 275.5,243.5 275.5,255.5C 275.5,258.167 275.5,260.833 275.5,263.5C 274.833,268.5 274.167,273.5 273.5,278.5C 273.5,273.833 273.5,269.167 273.5,264.5C 274.136,249.372 274.803,234.372 275.5,219.5 Z"/></g>
<g><path style="opacity:0.996" fill="#b0682a" d="M 269.5,243.5 C 268.082,291.666 266.416,339.666 264.5,387.5C 260.5,387.5 256.5,387.5 252.5,387.5C 252.519,362.458 252.519,337.625 252.5,313C 247.588,312.842 242.754,313.342 238,314.5C 237.333,359.5 237.333,404.5 238,449.5C 242.653,455.817 247.653,461.817 253,467.5C 253.028,494.841 252.528,522.174 251.5,549.5C 255.111,549.044 258.444,549.711 261.5,551.5C 262.167,560.991 262.833,570.325 263.5,579.5C 263.172,590.014 263.506,600.347 264.5,610.5C 264.5,618.833 264.5,627.167 264.5,635.5C 264.5,640.833 264.5,646.167 264.5,651.5C 259.083,653.04 253.749,654.873 248.5,657C 247.376,657.839 246.709,659.006 246.5,660.5C 248.609,679.471 250.442,698.471 252,717.5C 253.75,721.336 255.75,725.002 258,728.5C 258.5,747.497 258.667,766.497 258.5,785.5C 250.562,793.663 241.562,800.663 231.5,806.5C 230.577,799.891 230.244,793.224 230.5,786.5C 235.295,785.198 237.628,782.032 237.5,777C 235.925,761.876 234.925,746.71 234.5,731.5C 234.944,724.844 235.277,718.177 235.5,711.5C 235.435,706.982 234.769,702.649 233.5,698.5C 234.533,691.27 234.533,683.937 233.5,676.5C 234.907,670.91 235.407,665.243 235,659.5C 234.667,661.5 234.333,663.5 234,665.5C 232.75,660.58 232.25,655.58 232.5,650.5C 231.5,650.5 230.5,650.5 229.5,650.5C 230.59,525.169 230.756,399.836 230,274.5C 227.052,272.957 226.218,270.79 227.5,268C 226.709,251.895 226.042,235.729 225.5,219.5C 226.5,219.5 227.5,219.5 228.5,219.5C 228.167,236.18 228.501,252.847 229.5,269.5C 229.833,269.167 230.167,268.833 230.5,268.5C 229.681,251.544 229.181,234.544 229,217.5C 228.749,215.567 228.249,213.734 227.5,212C 228.448,211.517 229.448,211.351 230.5,211.5C 230.5,184.833 230.5,158.167 230.5,131.5C 228.833,131.5 227.167,131.5 225.5,131.5C 234.437,126.694 243.104,121.36 251.5,115.5C 252.822,115.67 253.989,115.337 255,114.5C 254.883,141.087 253.717,167.587 251.5,194C 252.121,196.498 251.455,198.832 249.5,201C 244.059,204.807 238.892,208.973 234,213.5C 233.167,232.176 233.334,250.842 234.5,269.5C 241.675,272.127 249.008,274.127 256.5,275.5C 257.24,264.838 257.907,254.172 258.5,243.5C 262.167,243.5 265.833,243.5 269.5,243.5 Z"/></g>
<g><path style="opacity:0.996" fill="#8a481e" d="M 97.5,249.5 C 96.3568,260.757 96.1901,272.091 97,283.5C 98.4998,299.533 99.6664,315.533 100.5,331.5C 100.248,349.229 99.2477,366.896 97.5,384.5C 97.6667,387.5 97.8333,390.5 98,393.5C 99.7255,394.464 101.559,395.131 103.5,395.5C 104.248,419.845 105.248,444.179 106.5,468.5C 108.591,468.682 110.591,468.348 112.5,467.5C 113.298,467.957 113.631,468.624 113.5,469.5C 108.797,469.437 104.13,469.771 99.5,470.5C 99.6621,472.527 99.4955,474.527 99,476.5C 94.3908,486.718 90.0574,497.052 86,507.5C 85.3333,518.167 85.3333,528.833 86,539.5C 86.3818,554.649 87.2151,568.982 88.5,582.5C 88.3333,589.167 88.1667,595.833 88,602.5C 86.297,604.347 86.4637,606.181 88.5,608C 90.1992,608.958 92.0326,609.458 94,609.5C 98.7429,609.028 103.41,608.361 108,607.5C 109,608.5 110,609.5 111,610.5C 111.377,609.058 112.21,608.058 113.5,607.5C 113.5,608.833 113.5,610.167 113.5,611.5C 113.203,618.92 113.536,626.254 114.5,633.5C 112.703,655.44 111.369,677.44 110.5,699.5C 109.895,702.304 109.062,704.971 108,707.5C 105.514,742.601 103.514,777.601 102,812.5C 100.601,813.227 99.1012,813.727 97.5,814C 99.3197,814.2 100.653,815.034 101.5,816.5C 83.8,810.823 68.1333,801.823 54.5,789.5C 55.311,782.332 55.9776,774.999 56.5,767.5C 55.0727,763.845 55.406,760.345 57.5,757C 61.4213,756.797 65.2546,756.297 69,755.5C 69.3333,755.833 69.6667,756.167 70,756.5C 71.2054,764.119 71.7054,771.786 71.5,779.5C 72.8333,779.5 74.1667,779.5 75.5,779.5C 75.5,780.5 75.5,781.5 75.5,782.5C 81.5155,782.927 87.3489,783.594 93,784.5C 94.7259,784.054 96.2259,783.221 97.5,782C 96.6921,757.182 96.1921,732.015 96,706.5C 91.2404,703.012 85.907,701.012 80,700.5C 78.9783,701.354 78.1449,702.354 77.5,703.5C 80.3289,709.619 80.9955,715.953 79.5,722.5C 78.6919,722.808 78.0253,723.308 77.5,724C 79.5,724.333 81.5,724.667 83.5,725C 82.7877,726.425 82.621,727.925 83,729.5C 77.7271,727.715 72.5604,725.715 67.5,723.5C 63.8749,722.678 60.3749,721.344 57,719.5C 56.5001,702.17 56.3334,684.837 56.5,667.5C 61.2091,668.103 65.7091,669.437 70,671.5C 70.7118,650.485 70.3784,629.485 69,608.5C 63.4414,605.031 57.608,602.031 51.5,599.5C 50.6668,568.505 50.1668,537.505 50,506.5C 48.871,504.859 47.371,503.859 45.5,503.5C 43.8525,501.674 41.8525,500.34 39.5,499.5C 39.5,433.5 39.5,367.5 39.5,301.5C 41.0855,302.533 42.4188,303.866 43.5,305.5C 47.8076,309.978 51.9743,314.645 56,319.5C 56.6667,342.5 56.6667,365.5 56,388.5C 53.9777,389.786 51.8111,390.786 49.5,391.5C 49.1667,392.667 48.8333,393.833 48.5,395C 51.2874,415.799 53.7874,436.632 56,457.5C 56.7724,458.849 57.9391,459.682 59.5,460C 67.8429,460.458 76.1763,460.291 84.5,459.5C 84.5,440.833 84.5,422.167 84.5,403.5C 79.57,403.803 74.7367,403.469 70,402.5C 69.1731,389.327 69.3398,376.327 70.5,363.5C 75.4201,358.416 80.5868,353.416 86,348.5C 86.3333,318.167 86.6667,287.833 87,257.5C 88.5059,255.826 90.3393,254.826 92.5,254.5C 92.9988,251.736 94.6655,250.069 97.5,249.5 Z"/></g>
<g><path style="opacity:0.996" fill="#9d5125" d="M 203.5,227.5 C 203.983,247.392 205.316,267.226 207.5,287C 207.333,288.167 207.167,289.333 207,290.5C 205.198,291.789 204.031,293.456 203.5,295.5C 202.504,295.414 201.671,295.748 201,296.5C 198.597,300.06 196.43,303.727 194.5,307.5C 188.467,315.568 181.967,323.234 175,330.5C 177.625,364.2 181.125,397.866 185.5,431.5C 185.167,432.167 184.833,432.833 184.5,433.5C 183.264,432.754 181.93,432.421 180.5,432.5C 174.642,431.476 168.976,430.143 163.5,428.5C 162.167,427.833 160.833,427.167 159.5,426.5C 160.64,425.199 161.973,424.032 163.5,423C 162.207,422.51 160.873,422.343 159.5,422.5C 159.529,335.916 159.529,249.416 159.5,163C 159.632,159.515 160.299,156.182 161.5,153C 158.677,151.159 158.844,149.659 162,148.5C 163.107,149.712 163.607,149.379 163.5,147.5C 163.5,147.167 163.5,146.833 163.5,146.5C 164.5,146.5 165.5,146.5 166.5,146.5C 172.834,145.932 179.167,145.766 185.5,146C 184.833,146.333 184.167,146.667 183.5,147C 184.642,153.084 184.809,159.251 184,165.5C 181.568,185.969 178.568,206.302 175,226.5C 173.331,240.165 171.998,253.832 171,267.5C 176.76,268.794 182.593,269.794 188.5,270.5C 188.593,248.465 187.26,226.465 184.5,204.5C 189.818,204.348 194.985,204.348 200,204.5C 200.911,212.315 202.077,219.982 203.5,227.5 Z"/></g>
<g><path style="opacity:0.784" fill="#e7ce99" d="M 273.5,264.5 C 273.5,269.167 273.5,273.833 273.5,278.5C 273.162,292.672 272.496,306.672 271.5,320.5C 271.417,301.649 272.084,282.982 273.5,264.5 Z"/></g>
<g><path style="opacity:0.996" fill="#a35b29" d="M 203.5,295.5 C 202.222,297.799 200.889,300.132 199.5,302.5C 199.354,350.74 199.521,399.074 200,447.5C 200.417,448.756 201.25,449.423 202.5,449.5C 199.825,454.17 195.825,456.837 190.5,457.5C 190.832,466.857 190.498,476.19 189.5,485.5C 185.682,485.33 181.682,485.33 177.5,485.5C 179.137,467.925 180.137,450.259 180.5,432.5C 181.93,432.421 183.264,432.754 184.5,433.5C 184.833,432.833 185.167,432.167 185.5,431.5C 181.125,397.866 177.625,364.2 175,330.5C 181.967,323.234 188.467,315.568 194.5,307.5C 196.43,303.727 198.597,300.06 201,296.5C 201.671,295.748 202.504,295.414 203.5,295.5 Z"/></g>
<g><path style="opacity:0.996" fill="#a25c29" d="M 103.5,395.5 C 101.559,395.131 99.7255,394.464 98,393.5C 97.8333,390.5 97.6667,387.5 97.5,384.5C 99.2477,366.896 100.248,349.229 100.5,331.5C 101.494,322.335 102.327,313.001 103,303.5C 110.747,302.518 118.58,302.185 126.5,302.5C 124.889,324.165 123.222,345.832 121.5,367.5C 121.833,369.167 122.167,370.833 122.5,372.5C 126.826,374.908 130.659,377.908 134,381.5C 137.098,402.502 139.432,423.502 141,444.5C 140.626,445.416 140.126,446.25 139.5,447C 133.147,447.293 126.813,447.793 120.5,448.5C 119.228,448.43 118.062,448.097 117,447.5C 115.949,438.531 115.282,429.531 115,420.5C 113.779,413.6 112.612,406.6 111.5,399.5C 108.807,398.153 106.14,396.82 103.5,395.5 Z"/></g>
<g><path style="opacity:0.996" fill="#bd702d" d="M 264.5,387.5 C 263.6,451.495 263.266,515.495 263.5,579.5C 262.833,570.325 262.167,560.991 261.5,551.5C 258.444,549.711 255.111,549.044 251.5,549.5C 252.528,522.174 253.028,494.841 253,467.5C 247.653,461.817 242.653,455.817 238,449.5C 237.333,404.5 237.333,359.5 238,314.5C 242.754,313.342 247.588,312.842 252.5,313C 252.519,337.625 252.519,362.458 252.5,387.5C 256.5,387.5 260.5,387.5 264.5,387.5 Z"/></g>
<g><path style="opacity:0.796" fill="#e9d5a8" d="M 271.5,337.5 C 271.428,351.018 270.761,364.351 269.5,377.5C 269.16,363.962 269.827,350.628 271.5,337.5 Z"/></g>
<g><path style="opacity:0.986" fill="#dbb769" d="M 268.5,387.5 C 268.728,407.183 268.395,426.85 267.5,446.5C 266.189,509.329 265.523,572.329 265.5,635.5C 265.167,635.5 264.833,635.5 264.5,635.5C 264.5,627.167 264.5,618.833 264.5,610.5C 264.333,554.832 264.5,499.166 265,443.5C 266.945,424.745 268.112,406.078 268.5,387.5 Z"/></g>
<g><path style="opacity:0.996" fill="#9f5627" d="M 216.5,644.5 C 218.026,647.505 217.193,648.172 214,646.5C 212.941,646.63 212.108,647.13 211.5,648C 212.661,672.761 212.827,697.594 212,722.5C 211.329,723.252 210.496,723.586 209.5,723.5C 208.596,722.791 208.263,721.791 208.5,720.5C 205.15,720.335 201.817,720.502 198.5,721C 192.559,722.879 186.559,724.546 180.5,726C 178.561,726.908 177.561,728.408 177.5,730.5C 176.168,747.137 176.168,763.804 177.5,780.5C 177.291,781.086 176.957,781.586 176.5,782C 171.845,782.499 167.179,782.666 162.5,782.5C 162.5,781.5 162.5,780.5 162.5,779.5C 163.879,780.609 165.545,781.276 167.5,781.5C 170.176,781.163 172.843,780.83 175.5,780.5C 175.18,762.12 175.513,743.787 176.5,725.5C 175.02,724.887 173.687,724.554 172.5,724.5C 173.803,716.33 174.47,707.997 174.5,699.5C 174.47,690.935 173.803,682.601 172.5,674.5C 178.299,671.599 184.299,669.265 190.5,667.5C 190.5,614.167 190.5,560.833 190.5,507.5C 187.932,508.45 185.432,508.45 183,507.5C 182.626,508.416 182.126,509.25 181.5,510C 178.828,510.834 176.161,511.668 173.5,512.5C 172.47,504.287 171.47,496.12 170.5,488C 172.303,485.897 174.636,485.064 177.5,485.5C 181.682,485.33 185.682,485.33 189.5,485.5C 190.498,476.19 190.832,466.857 190.5,457.5C 195.825,456.837 199.825,454.17 202.5,449.5C 203.937,448.275 205.604,447.275 207.5,446.5C 208.72,446.887 209.387,447.72 209.5,449C 208.339,512.138 208.172,575.305 209,638.5C 211.844,640.159 214.344,642.159 216.5,644.5 Z"/></g>
<g><path style="opacity:0.085" fill="#fbf7f1" d="M 275.5,263.5 C 268.6,427.773 266.767,592.106 270,756.5C 272.007,764.2 271.841,771.867 269.5,779.5C 268.5,779.5 267.5,779.5 266.5,779.5C 266.5,780.833 266.5,782.167 266.5,783.5C 265.5,783.5 264.5,783.5 263.5,783.5C 264.829,781.198 266.162,778.864 267.5,776.5C 268.499,765.52 268.832,754.52 268.5,743.5C 268.09,732.665 267.423,721.998 266.5,711.5C 266.5,705.167 266.5,698.833 266.5,692.5C 266.601,610.499 266.934,528.499 267.5,446.5C 268.395,426.85 268.728,407.183 268.5,387.5C 268.46,384.119 268.793,380.786 269.5,377.5C 270.761,364.351 271.428,351.018 271.5,337.5C 271.5,331.833 271.5,326.167 271.5,320.5C 272.496,306.672 273.162,292.672 273.5,278.5C 274.167,273.5 274.833,268.5 275.5,263.5 Z"/></g>
<g><path style="opacity:0.996" fill="#82431d" d="M 113.5,469.5 C 113.333,481.505 113.5,493.505 114,505.5C 120.385,506.855 126.885,507.522 133.5,507.5C 133.666,511.846 133.499,516.179 133,520.5C 126.302,549.315 120.802,578.315 116.5,607.5C 115.5,607.5 114.5,607.5 113.5,607.5C 112.21,608.058 111.377,609.058 111,610.5C 110,609.5 109,608.5 108,607.5C 103.41,608.361 98.7429,609.028 94,609.5C 92.0326,609.458 90.1992,608.958 88.5,608C 86.4637,606.181 86.297,604.347 88,602.5C 88.1667,595.833 88.3333,589.167 88.5,582.5C 87.2151,568.982 86.3818,554.649 86,539.5C 85.3333,528.833 85.3333,518.167 86,507.5C 90.0574,497.052 94.3908,486.718 99,476.5C 99.4955,474.527 99.6621,472.527 99.5,470.5C 104.13,469.771 108.797,469.437 113.5,469.5 Z"/></g>
<g><path style="opacity:0.996" fill="#7b401b" d="M 39.5,499.5 C 41.8525,500.34 43.8525,501.674 45.5,503.5C 46.6843,504.688 46.6843,505.855 45.5,507C 46.448,507.483 47.448,507.649 48.5,507.5C 48.5,538.167 48.5,568.833 48.5,599.5C 47.5,599.5 46.5,599.5 45.5,599.5C 45.5,600.833 45.5,602.167 45.5,603.5C 46.8333,603.5 48.1667,603.5 49.5,603.5C 49.8309,659.738 49.4976,715.905 48.5,772C 49.3333,772.833 50.1667,773.667 51,774.5C 50.9227,773.262 51.0894,772.262 51.5,771.5C 52.4922,775.783 52.8256,780.116 52.5,784.5C 51.5,784.5 50.5,784.5 49.5,784.5C 47.6957,782.505 45.6957,780.838 43.5,779.5C 42.4706,777.483 41.4706,775.483 40.5,773.5C 40.8325,708.665 40.4991,643.998 39.5,579.5C 39.5,552.833 39.5,526.167 39.5,499.5 Z"/></g>
<g><path style="opacity:0.996" fill="#7f421d" d="M 45.5,503.5 C 47.371,503.859 48.871,504.859 50,506.5C 50.1668,537.505 50.6668,568.505 51.5,599.5C 57.608,602.031 63.4414,605.031 69,608.5C 70.3784,629.485 70.7118,650.485 70,671.5C 65.7091,669.437 61.2091,668.103 56.5,667.5C 56.3334,684.837 56.5001,702.17 57,719.5C 60.3749,721.344 63.8749,722.678 67.5,723.5C 71.9009,726.787 76.7342,729.454 82,731.5C 82.8329,747.51 82.6662,763.51 81.5,779.5C 79.4684,778.181 77.4684,778.181 75.5,779.5C 74.1667,779.5 72.8333,779.5 71.5,779.5C 71.7054,771.786 71.2054,764.119 70,756.5C 69.6667,756.167 69.3333,755.833 69,755.5C 65.2546,756.297 61.4213,756.797 57.5,757C 55.406,760.345 55.0727,763.845 56.5,767.5C 55.9776,774.999 55.311,782.332 54.5,789.5C 52.5,788.167 50.8333,786.5 49.5,784.5C 50.5,784.5 51.5,784.5 52.5,784.5C 52.8256,780.116 52.4922,775.783 51.5,771.5C 51.0894,772.262 50.9227,773.262 51,774.5C 50.1667,773.667 49.3333,772.833 48.5,772C 49.4976,715.905 49.8309,659.738 49.5,603.5C 48.1667,603.5 46.8333,603.5 45.5,603.5C 45.5,602.167 45.5,600.833 45.5,599.5C 46.5,599.5 47.5,599.5 48.5,599.5C 48.5,568.833 48.5,538.167 48.5,507.5C 47.448,507.649 46.448,507.483 45.5,507C 46.6843,505.855 46.6843,504.688 45.5,503.5 Z"/></g>
<g><path style="opacity:0.996" fill="#a25928" d="M 163.5,428.5 C 168.976,430.143 174.642,431.476 180.5,432.5C 180.137,450.259 179.137,467.925 177.5,485.5C 174.636,485.064 172.303,485.897 170.5,488C 171.47,496.12 172.47,504.287 173.5,512.5C 176.161,511.668 178.828,510.834 181.5,510C 182.126,509.25 182.626,508.416 183,507.5C 185.432,508.45 187.932,508.45 190.5,507.5C 190.5,560.833 190.5,614.167 190.5,667.5C 184.299,669.265 178.299,671.599 172.5,674.5C 168.16,675.252 164.993,677.586 163,681.5C 162.5,714.165 162.333,746.832 162.5,779.5C 162.5,780.5 162.5,781.5 162.5,782.5C 167.179,782.666 171.845,782.499 176.5,782C 176.957,781.586 177.291,781.086 177.5,780.5C 176.168,763.804 176.168,747.137 177.5,730.5C 178.831,738.305 179.498,746.472 179.5,755C 179.396,765.834 179.063,776.501 178.5,787C 179.321,797.423 179.821,807.923 180,818.5C 180.497,816.19 180.663,813.857 180.5,811.5C 181.5,811.5 182.5,811.5 183.5,811.5C 183.357,815.135 183.024,818.801 182.5,822.5C 172.616,824.109 162.616,824.775 152.5,824.5C 151.833,811.5 151.167,798.5 150.5,785.5C 149.571,784.685 148.571,783.852 147.5,783C 148.672,782.581 149.672,781.915 150.5,781C 149.185,737.882 149.185,694.715 150.5,651.5C 148.833,651.5 147.167,651.5 145.5,651.5C 145.5,648.833 145.5,646.167 145.5,643.5C 146.468,645.607 146.802,647.941 146.5,650.5C 156.167,650.5 165.833,650.5 175.5,650.5C 171.113,611.862 166.947,573.195 163,534.5C 162.223,532.785 160.89,531.785 159,531.5C 155.373,533.325 151.54,534.325 147.5,534.5C 149.019,533.59 150.685,532.757 152.5,532C 151.584,531.626 150.75,531.126 150,530.5C 149.228,471.999 148.395,413.499 147.5,355C 147.833,330.833 148.167,306.667 148.5,282.5C 148.343,327.559 148.51,372.892 149,418.5C 149.692,419.025 150.192,419.692 150.5,420.5C 148.083,422.494 148.083,424.327 150.5,426C 153.167,426.667 155.833,427.333 158.5,428C 157.062,428.219 155.729,428.719 154.5,429.5C 155,429.833 155.5,430.167 156,430.5C 158.319,429.129 160.819,428.462 163.5,428.5 Z"/></g>
<g><path style="opacity:0.996" fill="#ab622c" d="M 145.5,643.5 C 144.032,608.148 142.366,572.814 140.5,537.5C 143.238,537.294 145.572,536.294 147.5,534.5C 151.54,534.325 155.373,533.325 159,531.5C 160.89,531.785 162.223,532.785 163,534.5C 166.947,573.195 171.113,611.862 175.5,650.5C 165.833,650.5 156.167,650.5 146.5,650.5C 146.802,647.941 146.468,645.607 145.5,643.5 Z"/></g>
<g><path style="opacity:0.65" fill="#ebd6ab" d="M 267.5,446.5 C 266.934,528.499 266.601,610.499 266.5,692.5C 265.503,673.674 265.17,654.674 265.5,635.5C 265.523,572.329 266.189,509.329 267.5,446.5 Z"/></g>
<g><path style="opacity:1" fill="#713919" d="M 39.5,579.5 C 40.4991,643.998 40.8325,708.665 40.5,773.5C 39.3263,772.486 38.6596,771.153 38.5,769.5C 39.4991,706.336 39.8324,643.002 39.5,579.5 Z"/></g>
<g><path style="opacity:0.996" fill="#8e4a21" d="M 113.5,611.5 C 114.491,617.979 114.824,624.646 114.5,631.5C 120.203,631.375 125.87,631.708 131.5,632.5C 133.469,681.49 135.136,730.49 136.5,779.5C 141.258,781.308 145.925,783.308 150.5,785.5C 151.167,798.5 151.833,811.5 152.5,824.5C 148.167,824.5 143.833,824.5 139.5,824.5C 134.851,823.935 130.184,823.435 125.5,823C 122.543,822.721 119.877,821.887 117.5,820.5C 120.167,820.5 122.833,820.5 125.5,820.5C 125.667,761.166 125.5,701.832 125,642.5C 124.774,639.905 124.274,637.405 123.5,635C 125.5,634.667 127.5,634.333 129.5,634C 124.511,633.501 119.511,633.334 114.5,633.5C 113.536,626.254 113.203,618.92 113.5,611.5 Z"/></g>
<g><path style="opacity:0.996" fill="#a25828" d="M 216.5,644.5 C 221.35,645.199 225.017,647.533 227.5,651.5C 228.538,678.428 230.871,705.095 234.5,731.5C 234.925,746.71 235.925,761.876 237.5,777C 237.628,782.032 235.295,785.198 230.5,786.5C 228.564,787.429 226.897,788.763 225.5,790.5C 223.293,791.635 220.96,792.301 218.5,792.5C 214.958,769.582 211.958,746.582 209.5,723.5C 210.496,723.586 211.329,723.252 212,722.5C 212.827,697.594 212.661,672.761 211.5,648C 212.108,647.13 212.941,646.63 214,646.5C 217.193,648.172 218.026,647.505 216.5,644.5 Z"/></g>
<g><path style="opacity:0.996" fill="#bd712e" d="M 264.5,635.5 C 264.833,635.5 265.167,635.5 265.5,635.5C 265.17,654.674 265.503,673.674 266.5,692.5C 266.5,698.833 266.5,705.167 266.5,711.5C 266.191,722.248 266.524,732.915 267.5,743.5C 267.832,753.855 267.499,764.188 266.5,774.5C 265.232,778.61 263.232,782.276 260.5,785.5C 259.833,785.5 259.167,785.5 258.5,785.5C 258.667,766.497 258.5,747.497 258,728.5C 255.75,725.002 253.75,721.336 252,717.5C 250.442,698.471 248.609,679.471 246.5,660.5C 246.709,659.006 247.376,657.839 248.5,657C 253.749,654.873 259.083,653.04 264.5,651.5C 264.5,646.167 264.5,640.833 264.5,635.5 Z"/></g>
<g><path style="opacity:0.996" fill="#9c5125" d="M 172.5,674.5 C 173.803,682.601 174.47,690.935 174.5,699.5C 174.47,707.997 173.803,716.33 172.5,724.5C 173.687,724.554 175.02,724.887 176.5,725.5C 175.513,743.787 175.18,762.12 175.5,780.5C 172.843,780.83 170.176,781.163 167.5,781.5C 165.545,781.276 163.879,780.609 162.5,779.5C 162.333,746.832 162.5,714.165 163,681.5C 164.993,677.586 168.16,675.252 172.5,674.5 Z"/></g>
<g><path style="opacity:0.996" fill="#89471f" d="M 114.5,633.5 C 119.511,633.334 124.511,633.501 129.5,634C 127.5,634.333 125.5,634.667 123.5,635C 124.274,637.405 124.774,639.905 125,642.5C 125.5,701.832 125.667,761.166 125.5,820.5C 122.833,820.5 120.167,820.5 117.5,820.5C 111.997,819.791 106.664,818.458 101.5,816.5C 100.653,815.034 99.3197,814.2 97.5,814C 99.1012,813.727 100.601,813.227 102,812.5C 103.514,777.601 105.514,742.601 108,707.5C 109.062,704.971 109.895,702.304 110.5,699.5C 111.369,677.44 112.703,655.44 114.5,633.5 Z"/></g>
<g><path style="opacity:0.996" fill="#84451e" d="M 75.5,779.5 C 77.4684,778.181 79.4684,778.181 81.5,779.5C 82.6662,763.51 82.8329,747.51 82,731.5C 76.7342,729.454 71.9009,726.787 67.5,723.5C 72.5604,725.715 77.7271,727.715 83,729.5C 82.621,727.925 82.7877,726.425 83.5,725C 81.5,724.667 79.5,724.333 77.5,724C 78.0253,723.308 78.6919,722.808 79.5,722.5C 80.9955,715.953 80.3289,709.619 77.5,703.5C 78.1449,702.354 78.9783,701.354 80,700.5C 85.907,701.012 91.2404,703.012 96,706.5C 96.1921,732.015 96.6921,757.182 97.5,782C 96.2259,783.221 94.7259,784.054 93,784.5C 87.3489,783.594 81.5155,782.927 75.5,782.5C 75.5,781.5 75.5,780.5 75.5,779.5 Z"/></g>
<g><path style="opacity:0.996" fill="#a35c29" d="M 209.5,723.5 C 211.958,746.582 214.958,769.582 218.5,792.5C 220.96,792.301 223.293,791.635 225.5,790.5C 226.897,788.763 228.564,787.429 230.5,786.5C 230.244,793.224 230.577,799.891 231.5,806.5C 223.306,810.429 214.972,814.096 206.5,817.5C 205.548,819.045 205.215,820.712 205.5,822.5C 205.167,822.5 204.833,822.5 204.5,822.5C 203.987,813.419 202.82,804.419 201,795.5C 199.827,789.81 198.327,784.477 196.5,779.5C 196.631,778.761 196.464,778.094 196,777.5C 192.528,791.724 189.528,806.057 187,820.5C 185.89,822.037 184.39,822.703 182.5,822.5C 183.024,818.801 183.357,815.135 183.5,811.5C 182.5,811.5 181.5,811.5 180.5,811.5C 180.663,813.857 180.497,816.19 180,818.5C 179.821,807.923 179.321,797.423 178.5,787C 179.063,776.501 179.396,765.834 179.5,755C 179.498,746.472 178.831,738.305 177.5,730.5C 177.561,728.408 178.561,726.908 180.5,726C 186.559,724.546 192.559,722.879 198.5,721C 201.817,720.502 205.15,720.335 208.5,720.5C 208.263,721.791 208.596,722.791 209.5,723.5 Z"/></g>
<g><path style="opacity:0.812" fill="#d8ab82" d="M 266.5,711.5 C 267.423,721.998 268.09,732.665 268.5,743.5C 268.167,743.5 267.833,743.5 267.5,743.5C 266.524,732.915 266.191,722.248 266.5,711.5 Z"/></g>
<g><path style="opacity:0.944" fill="#c88b50" d="M 267.5,743.5 C 267.833,743.5 268.167,743.5 268.5,743.5C 268.832,754.52 268.499,765.52 267.5,776.5C 266.162,778.864 264.829,781.198 263.5,783.5C 262.5,784.167 261.5,784.833 260.5,785.5C 263.232,782.276 265.232,778.61 266.5,774.5C 267.499,764.188 267.832,753.855 267.5,743.5 Z"/></g>
<g><path style="opacity:0.206" fill="#f8f3ea" d="M 263.5,783.5 C 263.5,784.833 263.5,786.167 263.5,787.5C 262.5,787.5 261.5,787.5 260.5,787.5C 260.5,788.833 260.5,790.167 260.5,791.5C 259.5,791.5 258.5,791.5 257.5,791.5C 257.5,792.833 257.5,794.167 257.5,795.5C 255.833,795.5 254.167,795.5 252.5,795.5C 255.547,792.455 258.213,789.122 260.5,785.5C 261.5,784.833 262.5,784.167 263.5,783.5 Z"/></g>
<g><path style="opacity:0.996" fill="#703f1e" d="M 196.5,779.5 C 198.327,784.477 199.827,789.81 201,795.5C 202.82,804.419 203.987,813.419 204.5,822.5C 202.901,822.232 201.568,822.566 200.5,823.5C 198.228,824.319 195.894,824.985 193.5,825.5C 192.235,824.486 191.569,822.986 191.5,821C 192.542,807.077 194.209,793.244 196.5,779.5 Z"/></g>
<g><path style="opacity:0.209" fill="#fbf7f1" d="M 252.5,795.5 C 252.5,796.833 252.5,798.167 252.5,799.5C 251.5,799.5 250.5,799.5 249.5,799.5C 249.5,800.833 249.5,802.167 249.5,803.5C 247.833,803.5 246.167,803.5 244.5,803.5C 244.5,804.833 244.5,806.167 244.5,807.5C 242.5,807.5 240.5,807.5 238.5,807.5C 243.436,803.904 248.103,799.904 252.5,795.5 Z"/></g>
<g><path style="opacity:0.179" fill="#faf7f0" d="M 238.5,807.5 C 238.5,808.833 238.5,810.167 238.5,811.5C 236.5,811.5 234.5,811.5 232.5,811.5C 232.5,812.833 232.5,814.167 232.5,815.5C 230.167,815.5 227.833,815.5 225.5,815.5C 229.323,812.084 233.657,809.418 238.5,807.5 Z"/></g>
<g><path style="opacity:0.411" fill="#fbf8f5" d="M 87.5,815.5 C 90.6865,816.597 93.6865,817.93 96.5,819.5C 93.5,819.5 90.5,819.5 87.5,819.5C 87.5,818.167 87.5,816.833 87.5,815.5 Z"/></g>
<g><path style="opacity:1" fill="#c18f42" d="M 258.5,785.5 C 259.167,785.5 259.833,785.5 260.5,785.5C 258.213,789.122 255.547,792.455 252.5,795.5C 248.103,799.904 243.436,803.904 238.5,807.5C 233.657,809.418 229.323,812.084 225.5,815.5C 224.5,815.5 223.5,815.5 222.5,815.5C 219.341,817.438 216.008,818.771 212.5,819.5C 212.5,819.833 212.5,820.167 212.5,820.5C 210.228,821.319 207.894,821.985 205.5,822.5C 205.215,820.712 205.548,819.045 206.5,817.5C 214.972,814.096 223.306,810.429 231.5,806.5C 241.562,800.663 250.562,793.663 258.5,785.5 Z"/></g>
<g><path style="opacity:1" fill="#c29245" d="M 43.5,779.5 C 45.6957,780.838 47.6957,782.505 49.5,784.5C 50.8333,786.5 52.5,788.167 54.5,789.5C 68.1333,801.823 83.8,810.823 101.5,816.5C 106.664,818.458 111.997,819.791 117.5,820.5C 119.877,821.887 122.543,822.721 125.5,823C 130.184,823.435 134.851,823.935 139.5,824.5C 137.958,825.163 136.291,825.83 134.5,826.5C 135.5,826.833 136.5,827.167 137.5,827.5C 144.327,828.052 150.994,828.719 157.5,829.5C 146.016,829.9 134.683,828.9 123.5,826.5C 119.322,826.122 115.322,825.122 111.5,823.5C 110.833,823.5 110.167,823.5 109.5,823.5C 105.527,822.398 101.527,821.065 97.5,819.5C 97.1667,819.5 96.8333,819.5 96.5,819.5C 93.6865,817.93 90.6865,816.597 87.5,815.5C 69.5618,807.568 54.8951,795.568 43.5,779.5 Z"/></g>
<g><path style="opacity:0.702" fill="#eddfc9" d="M 222.5,815.5 C 222.5,816.833 222.5,818.167 222.5,819.5C 219.167,819.5 215.833,819.5 212.5,819.5C 216.008,818.771 219.341,817.438 222.5,815.5 Z"/></g>
<g><path style="opacity:0.438" fill="#fbf8f4" d="M 97.5,819.5 C 101.527,821.065 105.527,822.398 109.5,823.5C 105.818,823.665 102.152,823.499 98.5,823C 97.6634,821.989 97.33,820.822 97.5,819.5 Z"/></g>
<g><path style="opacity:0.388" fill="#eee4d7" d="M 212.5,820.5 C 212.5,821.5 212.5,822.5 212.5,823.5C 208.5,823.5 204.5,823.5 200.5,823.5C 201.568,822.566 202.901,822.232 204.5,822.5C 204.833,822.5 205.167,822.5 205.5,822.5C 207.894,821.985 210.228,821.319 212.5,820.5 Z"/></g>
<g><path style="opacity:0.398" fill="#fdfbf9" d="M 111.5,823.5 C 115.322,825.122 119.322,826.122 123.5,826.5C 123.5,826.833 123.5,827.167 123.5,827.5C 119.818,827.665 116.152,827.499 112.5,827C 111.663,825.989 111.33,824.822 111.5,823.5 Z"/></g>
<g><path style="opacity:0.999" fill="#bd8a3d" d="M 196.5,779.5 C 194.209,793.244 192.542,807.077 191.5,821C 191.569,822.986 192.235,824.486 193.5,825.5C 189.5,826.167 185.5,826.833 181.5,827.5C 181.5,827.833 181.5,828.167 181.5,828.5C 173.517,829.166 165.517,829.499 157.5,829.5C 150.994,828.719 144.327,828.052 137.5,827.5C 136.5,827.167 135.5,826.833 134.5,826.5C 136.291,825.83 137.958,825.163 139.5,824.5C 143.833,824.5 148.167,824.5 152.5,824.5C 162.616,824.775 172.616,824.109 182.5,822.5C 184.39,822.703 185.89,822.037 187,820.5C 189.528,806.057 192.528,791.724 196,777.5C 196.464,778.094 196.631,778.761 196.5,779.5 Z"/></g>
<g><path style="opacity:0.315" fill="#f3eadd" d="M 200.5,823.5 C 200.5,824.833 200.5,826.167 200.5,827.5C 194.167,827.5 187.833,827.5 181.5,827.5C 185.5,826.833 189.5,826.167 193.5,825.5C 195.894,824.985 198.228,824.319 200.5,823.5 Z"/></g>
<g><path style="opacity:0.444" fill="#f6efe4" d="M 123.5,827.5 C 123.5,827.167 123.5,826.833 123.5,826.5C 134.683,828.9 146.016,829.9 157.5,829.5C 165.517,829.499 173.517,829.166 181.5,828.5C 181.5,829.5 181.5,830.5 181.5,831.5C 164.83,831.667 148.163,831.5 131.5,831C 130.663,829.989 130.33,828.822 130.5,827.5C 128.167,827.5 125.833,827.5 123.5,827.5 Z"/></g>
</svg>
